<?xml version="1.0"?>
<svg width="392.469" height="392.469" xmlns="http://www.w3.org/2000/svg" xmlns:svg="http://www.w3.org/2000/svg" version="1.1" xml:space="preserve">
 <g class="layer">
  <title>Layer 1</title>
  <path d="m313.47,371.75c12.02,0 21.78,-9.83 21.78,-21.79l0,-305.39c0,-12.02 -9.82,-21.78 -21.78,-21.78l-232.34,0c-12.02,0 -21.79,9.82 -21.79,21.78l0,305.33c0,12.02 9.83,21.78 21.79,21.78l232.27,0l0,0.07l0.07,0z" fill="#ffa300" id="svg_1"/>
  <path d="m80.13,347.41l0,-302.29c0,-0.84 0.71,-1.55 1.55,-1.55l229.24,0c0.84,0 1.55,0.71 1.55,1.55l0,302.22c0,0.84 -0.71,1.56 -1.55,1.56l-229.24,0c-0.84,0.06 -1.55,-0.65 -1.55,-1.49z" fill="#ffa300" id="svg_2"/>
  <g id="svg_3">
   <path d="m312.47,0l-232.34,0c-24.11,0 -43.64,19.52 -43.64,43.57l0,305.33c0,24.04 19.53,43.57 43.57,43.57l232.34,0c24.05,0 43.58,-19.52 43.58,-43.57l0,-305.33c0.13,-24.05 -19.46,-43.57 -43.51,-43.57zm21.85,348.96c0,12.03 -9.83,21.79 -21.79,21.79l-232.4,0c-12.02,0 -21.79,-9.83 -21.79,-21.79l0,-305.39c0,-12.02 9.83,-21.78 21.79,-21.78l232.34,0c12.02,0 21.78,9.82 21.78,21.78l0,305.39l0.07,0z" fill="#007c7d" id="svg_4"/>
   <path d="m133.46,54.3c-23.4,0 -42.47,19.07 -42.47,42.48l0,35.23c0,23.4 19.07,42.47 42.47,42.47s42.48,-19.07 42.48,-42.47l0,-35.23c0.06,-23.41 -18.95,-42.48 -42.48,-42.48zm0,21.79c11.38,0 20.62,9.24 20.62,20.62l0,6.72l-41.24,0l0,-6.72c0,-11.31 9.31,-20.62 20.62,-20.62zm0,76.6c-11.38,0 -20.62,-9.24 -20.62,-20.62l0,-6.72l41.31,0l0,6.72c0.06,11.32 -9.24,20.62 -20.69,20.62z" fill="#007c7d" id="svg_5"/>
  </g>
  <path d="m154.21,96.84c0,-11.38 -9.24,-20.62 -20.62,-20.62s-20.69,9.24 -20.69,20.62l0,6.72l41.38,0l0,-6.72l-0.07,0z" fill="#56ACE0" id="svg_6" transform="matrix(1 0 0 1 0 0)"/>
  <path d="m112.84,132.07c0,11.38 9.24,20.62 20.62,20.62s20.62,-9.24 20.62,-20.62l0,-6.72l-41.24,0c0,0 0,6.72 0,6.72z" fill="#e00000" id="svg_7" transform="matrix(1 0 0 1 0 0)"/>
  <path d="m259.07,54.3c-23.4,0 -42.47,19.07 -42.47,42.48l0,35.23c0,23.4 19.07,42.47 42.47,42.47s42.47,-19.07 42.47,-42.47l0,-35.23c0,-23.41 -19,-42.48 -42.47,-42.48zm0,21.79c11.38,0 20.62,9.24 20.62,20.62l0,6.72l-41.37,0l0,-6.72c0.06,-11.31 9.37,-20.62 20.75,-20.62zm0,76.6c-11.38,0 -20.62,-9.24 -20.62,-20.62l0,-6.72l41.31,0l0,6.72c0,11.32 -9.25,20.62 -20.69,20.62z" fill="#007c7d" id="svg_8" transform="matrix(1 0 0 1 0 0)"/>
  <path d="m238.38,96.84l0,6.72l41.31,0l0,-6.72c0,-11.38 -9.24,-20.62 -20.62,-20.62c-11.38,-0.13 -20.69,9.18 -20.69,20.62z" fill="#e00000" id="svg_9" transform="matrix(1 0 0 1 0 0)"/>
  <g id="svg_10" transform="matrix(1 0 0 1 0 0)">
   <path d="m238.38,132.07c0,11.38 9.25,20.62 20.63,20.62s20.62,-9.24 20.62,-20.62l0,-6.72l-41.31,0l0,6.72l0.06,0z" fill="#56ACE0" id="svg_11"/>
   <path d="m154.21,254.13c0,-11.38 -9.24,-20.63 -20.62,-20.63s-20.69,9.31 -20.69,20.63l0,6.72l41.38,0l0,-6.72l-0.07,0z" fill="#56ACE0" id="svg_12"/>
  </g>
  <path d="m112.84,289.36c0,11.38 9.24,20.62 20.62,20.62s20.62,-9.24 20.62,-20.62l0,-6.73l-41.24,0c0,0 0,6.73 0,6.73z" fill="#e00000" id="svg_13"/>
  <path d="m133.46,211.65c-23.4,0 -42.47,19.07 -42.47,42.48l0,35.23c0,23.4 19.07,42.47 42.47,42.47s42.48,-19.07 42.48,-42.47l0,-35.23c0.06,-23.41 -18.95,-42.48 -42.48,-42.48zm20.75,77.71c0,11.38 -9.24,20.62 -20.62,20.62s-20.69,-9.24 -20.69,-20.62l0,-6.73l41.38,0l0,6.73l-0.07,0zm-41.37,-35.23c0,-11.38 9.24,-20.63 20.62,-20.63s20.62,9.25 20.62,20.63l0,6.72l-41.24,0c0,0 0,-6.72 0,-6.72z" fill="#007c7d" id="svg_14" transform="matrix(1 0 0 1 0 0)"/>
  <path d="m238.38,289.36c0,11.38 9.25,20.62 20.63,20.62s20.68,-9.24 20.68,-20.62l0,-6.73l-41.37,0l0,6.73l0.06,0z" fill="#56ACE0" id="svg_15"/>
  <path d="m279.76,254.13c0,-11.38 -9.25,-20.63 -20.63,-20.63s-20.62,9.25 -20.62,20.63l0,6.72l41.25,0l0,-6.72z" fill="#e00000" id="svg_16" transform="matrix(1 0 0 1 0 0)"/>
  <path d="m259.07,211.65c-23.4,0 -42.47,19.07 -42.47,42.48l0,35.23c0,23.4 19.07,42.47 42.47,42.47s42.47,-19.07 42.47,-42.47l0,-35.23c0,-23.41 -19,-42.48 -42.47,-42.48zm20.69,77.71c0,11.38 -9.25,20.62 -20.63,20.62s-20.62,-9.24 -20.62,-20.62l0,-6.73l41.25,0l0,6.73zm-41.38,-35.23c0,-11.38 9.25,-20.63 20.63,-20.63s20.68,9.31 20.68,20.63l0,6.72l-41.37,0l0,-6.72l0.06,0z" fill="#007c7d" id="svg_17"/>
 </g>
</svg>